<?xml version="1.0" encoding="UTF-8" standalone="no"?>
<!DOCTYPE svg PUBLIC "-//W3C//DTD SVG 1.1//EN" "http://www.w3.org/Graphics/SVG/1.1/DTD/svg11.dtd">
<svg width="100%" height="100%" viewBox="0 0 3334 1250" version="1.1" xmlns="http://www.w3.org/2000/svg" xmlns:xlink="http://www.w3.org/1999/xlink" xml:space="preserve" xmlns:serif="http://www.serif.com/" style="fill-rule:evenodd;clip-rule:evenodd;stroke-linejoin:round;stroke-miterlimit:2;">
    <g id="Layer-1" serif:id="Layer 1" transform="matrix(4.16667,0,0,4.16667,916.667,-125)">
        <g transform="matrix(1,0,0,1,-53.4164,122.232)">
            <path d="M0,115.537L-38.695,86.978L-23.483,40.554L26.048,40.404L40.989,86.02L0,115.537ZM-64.582,111.56L-94.474,203.909L46.392,102.493L78.309,201.096L96.784,201.096L43.479,40.359L104.661,40.179L71.144,63.949L77.54,80.293L156.018,23.556L-18.08,24.065L1.298,-35.104L14.76,5.975L32.221,5.975L1.298,-88.372L-52.745,76.6L-101.265,40.778L-61.217,40.643L-56.054,24.037L-151.189,24.455L-14.08,125.676L-62.902,160.824L-50.369,122.456L-64.582,111.56Z" style="fill:rgb(35,31,32);fill-rule:nonzero;"/>
        </g>
        <g transform="matrix(1.64394,0,0,1.64394,50.8373,-265.86)">
            <g transform="matrix(1,0,0,1,307.28,341.812)">
                <path d="M0,-31.77C-1.11,-33.077 -2.743,-33.795 -4.596,-33.795L-14.7,-33.795C-18.46,-33.795 -21.884,-30.847 -22.497,-27.078L-25.975,-4.947C-26.279,-3.079 -25.827,-1.322 -24.702,-0C-23.592,1.307 -21.96,2.025 -20.106,2.025L-10.004,2.025C-6.243,2.025 -2.818,-0.922 -2.206,-4.692L-0.216,-17.278L-14.503,-17.278L-15.399,-11.893L-6.5,-11.893L-7.572,-4.95C-7.835,-3.36 -9.025,-3.36 -9.417,-3.36L-19.521,-3.36C-19.801,-3.36 -20.185,-3.416 -20.417,-3.687C-20.662,-3.974 -20.658,-4.392 -20.61,-4.692L-17.131,-26.829C-16.983,-27.774 -16.243,-28.41 -15.287,-28.41L-5.183,-28.41C-4.903,-28.41 -4.519,-28.353 -4.287,-28.083C-4.042,-27.796 -4.046,-27.377 -4.094,-27.078L-5.079,-20.865L0.326,-20.865L1.272,-26.823C1.576,-28.69 1.124,-30.447 0,-31.77" style="fill:rgb(35,31,32);fill-rule:nonzero;"/>
            </g>
            <g transform="matrix(1,0,0,1,264.861,315.553)">
                <path d="M0,20.582L-6.045,-7.284L-14.26,-7.284L-19.796,27.866L-14.391,27.866L-9.993,-0.016L-3.906,27.866L4.265,27.866L9.8,-7.284L4.394,-7.284L0,20.582Z" style="fill:rgb(35,31,32);fill-rule:nonzero;"/>
            </g>
            <g transform="matrix(1,0,0,1,227.667,308.27)">
                <path d="M0,35.149L5.407,35.149L10.941,0L5.536,0L0,35.149Z" style="fill:rgb(35,31,32);fill-rule:nonzero;"/>
            </g>
            <g transform="matrix(1,0,0,1,201.259,329.293)">
                <path d="M0,-6.897L1.381,-15.676L14.122,-15.632C14.156,-15.591 14.18,-15.481 14.149,-15.311L13.183,-9.177C13.098,-8.56 12.728,-7.335 11.914,-6.897L0,-6.897ZM11.968,0.702L10.796,8.155C10.73,8.549 10.497,8.741 10.082,8.741L-2.472,8.741L-0.842,-1.512L11.25,-1.512C11.806,-1.119 12.087,-0.067 11.968,0.702M14.526,-21.023L-3.184,-21.023L-8.72,14.126L9.537,14.126C12.664,14.126 15.635,11.566 16.161,8.414L17.337,0.944C17.636,-1.115 16.899,-3.021 15.449,-4.183C17.112,-5.316 18.296,-7.102 18.593,-9.026L19.555,-15.053C19.818,-16.627 19.431,-18.123 18.466,-19.266C17.504,-20.4 16.106,-21.023 14.526,-21.023" style="fill:rgb(35,31,32);fill-rule:nonzero;"/>
            </g>
            <g transform="matrix(1,0,0,1,167.626,321.592)">
                <path d="M0,8.503L-2.256,-13.323L-10.732,-13.323L-17.63,21.826L-12.217,21.826L-6.89,-4.811L-4.042,21.408L0.148,21.408L11.28,-4.657L8.184,21.826L13.577,21.826L17.795,-13.323L8.883,-13.323L0,8.503Z" style="fill:rgb(35,31,32);fill-rule:nonzero;"/>
            </g>
            <g transform="matrix(1,0,0,1,134.713,315.235)">
                <path d="M0,21.637C-0.148,22.582 -0.888,23.218 -1.844,23.218L-12.114,23.218C-12.396,23.218 -12.779,23.161 -13.012,22.89C-13.257,22.604 -13.253,22.185 -13.205,21.886L-8.657,-6.966L-14.062,-6.966L-18.57,21.631C-18.874,23.498 -18.422,25.255 -17.298,26.578C-16.187,27.885 -14.555,28.603 -12.702,28.603L-2.431,28.603C1.329,28.603 4.753,25.655 5.366,21.886L9.915,-6.966L4.509,-6.966L0,21.637Z" style="fill:rgb(35,31,32);fill-rule:nonzero;"/>
            </g>
            <g transform="matrix(1,0,0,1,96.1688,343.418)">
                <path d="M0,-35.149L-5.364,-35.149L-10.9,0L10.519,0L11.358,-5.385L-4.695,-5.385L0,-35.149Z" style="fill:rgb(35,31,32);fill-rule:nonzero;"/>
            </g>
            <g transform="matrix(1,0,0,1,74.2658,336.953)">
                <path d="M0,-22.219L-1.175,-14.838C-1.324,-13.877 -2.033,-13.257 -2.977,-13.257L-14.4,-13.257L-12.81,-23.299L-1.132,-23.299C-0.657,-23.299 -0.299,-23.186 -0.126,-22.984C0.014,-22.82 0.057,-22.565 0,-22.219M-0.545,-28.684L-17.375,-28.684L-22.911,6.465L-17.504,6.465L-15.241,-7.872L-3.563,-7.872C0.22,-7.872 3.628,-10.826 4.191,-14.589L5.364,-21.964C5.656,-23.753 5.234,-25.422 4.176,-26.665C3.069,-27.966 1.392,-28.684 -0.545,-28.684" style="fill:rgb(35,31,32);fill-rule:nonzero;"/>
            </g>
            <g transform="matrix(1,0,0,1,256.905,212.905)">
                <path d="M0,70.941L8.061,70.941L8.061,48.624L31.864,0L22.886,0L3.647,39.302L-16.124,0L-25.145,0L0,49.987L0,70.941Z" style="fill:rgb(35,31,32);fill-rule:nonzero;"/>
            </g>
            <g transform="matrix(1,0,0,1,203.915,232.943)">
                <path d="M0,29.751L10.509,-5.108L31.285,64.102L40.463,64.102L10.393,-34.351L-8.827,29.751L0,29.751Z" style="fill:rgb(35,31,32);fill-rule:nonzero;"/>
            </g>
            <g transform="matrix(1,0,0,1,174.767,220.944)">
                <path d="M0,54.637L42.931,54.637L44.766,62.568L-7.843,62.568L-7.843,-7.931L0,-7.931L0,54.637Z" style="fill:rgb(35,31,32);fill-rule:nonzero;"/>
            </g>
            <g transform="matrix(1,0,0,1,104.892,283.442)">
                <path d="M0,-79.953L0.372,-79.953L24.991,-32.204L49.31,-79.953L49.682,-79.953L49.682,0L42.194,0L42.194,-51.517L24.991,-14.857L24.619,-14.857L7.492,-51.517L7.492,0L0,0L0,-79.953Z" style="fill:rgb(35,31,32);fill-rule:nonzero;"/>
            </g>
            <g transform="matrix(-1,0,0,1,185.447,127.19)">
                <rect x="93.267" y="85.734" width="7.913" height="70.342" style="fill:rgb(35,31,32);"/>
            </g>
        </g>
    </g>
</svg>
